<?xml version="1.0" encoding="UTF-8"?>
<svg width="650px" height="650px" viewBox="0 0 650 650" version="1.1" xmlns="http://www.w3.org/2000/svg" xmlns:xlink="http://www.w3.org/1999/xlink">
    <!-- Generator: Sketch 64 (93537) - https://sketch.com -->
    <title>Slice</title>
    <desc>Created with Sketch.</desc>
    <g id="Page-1" stroke="none" stroke-width="1" fill="none" fill-rule="evenodd">
        <g id="icon" transform="translate(28.000000, 26.000000)" fill="#000000" fill-rule="nonzero">
            <path d="M264.55649,2.74752138 C283.073653,1.51093003 307.107916,-5.05251639 320.456761,12.1012252 C337.103183,29.8257013 321.820182,62.484396 297.722504,61.6282943 C261.67111,59.9160909 229.900225,94.1918666 233.166094,129.926186 C232.024625,158.272665 239.761248,191.882584 217.185529,214.172935 C181.45121,244.643815 161.285258,295.502597 174.443859,341.510137 C187.602459,401.437257 249.749101,445.003321 310.4372,437.393528 C346.742254,432.73253 380.605833,412.598286 401.120566,382.159115 C437.203668,331.617406 426.39142,256.280456 378.703384,216.86807 C343.222725,185.382552 361.898425,119.335891 409.079141,112.170002 C492.121007,101.548 557.216444,192.358196 544.660285,269.312227 C539.396845,385.424984 438.789041,488.410849 322.929943,496.623083 C250.668618,506.008495 174.856056,479.437634 122.950926,428.293484 C72.8214154,380.383496 44.157862,310.341694 48.1530032,240.934041 C48.2798331,122.411515 147.333971,15.589047 264.55649,2.74752138 Z" id="Path"></path>
            <path d="M4.36,538.37 C9.68,524.55 24.72,517 38.99,517.19 C51.35,516.52 66.23,521.43 70.69,534.1 C73.01,539.1 68.37,545.11 62.97,544.18 C58.69,543.7 57.02,539.28 54.72,536.29 C48.8,527.58 35.76,527.28 27.36,532.34 C18.55,537.86 16.1,549.23 16.71,558.95 C16.96,567.89 20.66,577.77 29.24,581.79 C38.96,586.23 50.17,583.48 59.27,578.82 C59.52,574.74 59.25,570.66 59.52,566.58 C53.41,565.54 46.82,567.54 40.99,564.97 C36.72,562.33 39.06,554.91 44.01,554.79 C52.24,554.71 60.61,554.06 68.77,555.26 C74.96,557.31 73.38,564.98 73.55,570 C73.04,575.62 75.38,583.05 69.96,586.92 C54.34,597.4 31.97,599.89 15.86,589.15 C0.18,577.99 -2.2,555.29 4.36,538.37 Z" id="Path"></path>
            <path d="M93.36,517.46 C98.23,515.88 103.47,519.88 103.22,525 C103.39,544.35 103.33,563.72 103.24,583.09 C114.6,583.72 126.04,582.69 137.36,583.6 C144.03,584.61 143.63,595.46 136.8,595.8 C123.18,596.18 109.53,595.96 95.9,595.91 C91.47,596.19 87.75,592.46 87.98,588.04 C87.74,567.7 87.95,547.35 87.88,527.01 C87.66,523.17 89.12,518.4 93.36,517.46 Z" id="Path"></path>
            <path d="M152.38,525.91 C152.08,521.53 155.31,517.16 159.94,517.3 C174.92,517.21 189.93,516.97 204.89,517.42 C211.44,518.09 211.16,529.02 204.56,529.34 C192.33,529.85 180.06,529.39 167.81,529.57 C167.8,535.99 167.77,542.4 167.82,548.82 C179.2,548.98 190.61,548.48 201.97,549.06 C208.28,549.66 208.2,560.13 201.92,560.7 C190.57,561.29 179.18,560.76 167.81,560.96 C167.79,568.39 167.8,575.81 167.8,583.24 C180.21,583.38 192.63,583.08 205.04,583.38 C209.85,583.27 212.53,589.18 210.1,593.05 C208.27,596.24 204.16,596.02 200.99,596 C187.01,595.81 173.01,596.28 159.05,595.77 C154.62,595.58 152.15,591.12 152.38,587.08 C152.29,566.69 152.29,546.3 152.38,525.91 Z" id="Path"></path>
            <path d="M229.37,517.46 C242.61,517.44 256.52,515.42 269.33,519.7 C284.86,526.56 289.49,545.45 288.14,560.96 C287.85,574.79 280.75,590.17 266.58,594.34 C255.29,597.26 243.45,595.53 231.92,595.95 C227.33,596.38 223.13,592.75 223.43,588.03 C223.06,567.68 223.35,547.31 223.28,526.95 C223.03,522.93 224.79,517.98 229.37,517.46 M238.7,529.82 C238.66,547.63 238.66,565.45 238.7,583.26 C246.54,582.78 254.93,584.61 262.34,581.3 C270.41,576.72 272.35,566.51 272.58,557.99 C272.84,548.94 271.83,537.89 263.41,532.56 C255.79,528.74 246.92,530.04 238.7,529.82 Z" id="Shape"></path>
            <path d="M328.45,517.61 C339.77,516.12 352.33,518.01 361.06,525.9 C370.56,534.34 373.41,547.86 372.62,560.07 C372.14,571.9 367.05,584.28 356.6,590.62 C342.59,598.68 323.08,598.07 310.43,587.6 C298.01,576.45 296.11,557.54 300.17,542.17 C303.36,529.11 315.06,518.93 328.45,517.61 M329.26,530.29 C320.48,532.58 315.41,541.42 314.37,549.94 C313.13,559.74 314.21,571.1 321.63,578.36 C330.39,587.01 346.94,584.84 352.89,573.96 C358.4,564.04 358.41,551.32 353.97,541.01 C350.01,531.73 338.67,527.42 329.26,530.29 Z" id="Shape"></path>
            <path d="M389.43,518.43 C393.96,516.29 399.16,517.41 404,517.14 C413.19,517.45 422.82,516.08 431.62,519.45 C448.04,526.19 448.2,553.96 431.75,560.79 C422.15,565.12 411.4,563.17 401.24,563.92 C401.06,572.85 401.97,581.91 400.73,590.76 C398.87,598.51 386.08,597.11 386.08,589.05 C385.6,568.72 386.03,548.36 385.87,528.01 C385.86,524.6 386.02,520.27 389.43,518.43 M401.27,528.92 C401.34,536.6 401.31,544.28 401.29,551.96 C408.29,551.79 415.67,552.95 422.34,550.25 C430.79,546.87 430.12,532.02 421.09,529.88 C414.63,528.2 407.86,528.86 401.27,528.92 Z" id="Shape"></path>
            <path d="M453.57,529.49 C447.16,527.95 448.48,517.33 455.1,517.36 C472.69,517.07 490.32,517.14 507.91,517.32 C514.37,517.04 516.32,527.08 510.32,529.26 C503.47,530.82 496.28,529.54 489.29,530.04 C489.31,549.01 489.34,567.99 489.28,586.97 C489.5,590.88 487.35,595.43 483.05,595.89 C478.29,596.96 473.81,592.82 474.01,588.07 C473.7,568.72 473.97,549.36 473.88,530.01 C467.12,529.67 460.26,530.58 453.57,529.49 Z" id="Path"></path>
            <path d="M548.47,517.64 C560.03,516.06 572.93,518.03 581.74,526.26 C591.46,535.24 593.93,549.45 592.74,562.11 C591.88,573.82 586.09,585.83 575.39,591.49 C561.24,598.65 542.13,597.76 530,586.97 C518.1,575.52 516.39,556.85 520.6,541.62 C523.93,528.88 535.38,519.04 548.47,517.64 M549.3,530.36 C540.72,532.71 535.76,541.39 534.67,549.74 C533.37,559.54 534.44,570.89 541.78,578.22 C550.45,587.01 567.1,584.92 573.11,574.04 C578.7,564.09 578.71,551.27 574.21,540.91 C570.17,531.62 558.72,527.37 549.3,530.36 Z" id="Shape"></path>
        </g>
    </g>
</svg>