<?xml version="1.0" standalone="no"?>
<!DOCTYPE svg PUBLIC "-//W3C//DTD SVG 20010904//EN"
 "http://www.w3.org/TR/2001/REC-SVG-20010904/DTD/svg10.dtd">
<svg version="1.0" xmlns="http://www.w3.org/2000/svg"
 width="825.000000pt" height="953.000000pt" viewBox="0 0 825.000000 953.000000"
 preserveAspectRatio="xMidYMid meet">
<metadata>
Created by potrace 1.16, written by Peter Selinger 2001-2019
</metadata>
<g transform="translate(0.000000,953.000000) scale(0.100000,-0.100000)"
fill="#000000" stroke="none">
<path d="M3195 9489 c-1017 -29 -2085 -115 -2868 -231 l-147 -22 2 -214 3
-215 64 -24 c62 -23 140 -43 224 -57 l37 -7 0 -67 c0 -184 34 -508 76 -742
170 -938 676 -1899 1364 -2591 80 -80 188 -180 240 -221 206 -162 225 -223
234 -713 12 -669 47 -2103 52 -2153 6 -61 7 -62 206 -286 166 -186 254 -268
322 -300 48 -23 65 -25 261 -30 116 -3 213 -6 218 -6 4 0 7 -261 7 -580 0
-380 3 -580 10 -580 6 0 10 -16 10 -35 0 -19 5 -35 10 -35 6 0 10 -19 10 -41
0 -58 17 -68 118 -69 96 0 112 9 112 64 0 20 5 36 10 36 6 0 10 18 10 40 0 22
5 40 10 40 7 0 10 200 10 580 l0 580 345 0 345 0 0 -570 c0 -373 3 -570 10
-570 6 0 10 -16 10 -35 0 -19 5 -35 10 -35 6 0 10 -11 10 -25 0 -14 5 -25 10
-25 6 0 10 -11 10 -24 0 -53 5 -56 107 -56 109 0 123 8 123 69 0 23 5 41 10
41 6 0 10 16 10 35 0 19 5 35 10 35 7 0 10 200 10 579 l0 579 168 7 c190 8
204 13 311 99 79 63 429 447 436 478 12 54 51 1398 60 2068 7 484 12 544 58
644 32 68 69 109 191 210 330 272 715 749 987 1223 406 709 621 1437 655 2225
l7 158 36 6 c90 14 141 27 211 53 l75 27 3 215 2 215 -147 22 c-807 120 -1836
201 -2928 232 -408 11 -1331 11 -1750 -1z m2015 -129 c757 -30 1397 -75 1985
-141 251 -28 598 -72 673 -85 l32 -6 0 -114 c0 -62 -3 -115 -7 -117 -5 -2 -84
6 -178 19 -1069 147 -2250 218 -3615 218 -1365 0 -2546 -71 -3615 -218 -93
-13 -173 -21 -177 -19 -5 2 -8 55 -8 117 l0 114 33 6 c64 11 406 55 622 80
688 78 1484 131 2345 156 365 10 1552 4 1910 -10z m-380 -290 c988 -25 1827
-83 2629 -182 249 -30 304 -46 170 -47 l-56 -1 -7 -202 c-22 -625 -147 -1183
-392 -1744 -282 -648 -783 -1341 -1225 -1696 -52 -42 -109 -92 -126 -112 -29
-32 -42 -38 -160 -65 -1259 -296 -1839 -299 -3073 -15 l-155 36 -65 62 c-36
34 -96 87 -135 118 -94 76 -360 348 -466 478 -613 752 -985 1590 -1099 2473
-21 164 -40 438 -40 580 l0 87 -57 1 c-136 1 -82 17 168 47 1217 150 2719 217
4089 182z m-2145 -4150 c580 -131 995 -184 1420 -183 425 0 791 48 1379 179
136 30 250 53 253 51 2 -3 -3 -22 -11 -43 -46 -115 -48 -142 -56 -784 -5 -338
-14 -745 -19 -905 -6 -159 -15 -450 -22 -645 -9 -287 -14 -357 -26 -367 -18
-14 -105 -30 -273 -48 -231 -25 -468 -35 -980 -41 -866 -11 -1689 29 -1741 84
-18 19 -22 154 -54 1692 -8 410 -19 786 -25 837 -5 51 -21 122 -35 158 -22 58
-23 66 -7 61 9 -3 98 -24 197 -46z m2794 -2842 c-139 -156 -231 -248 -293
-294 l-58 -44 -1028 0 -1027 0 -40 29 c-22 16 -64 53 -94 82 -70 69 -272 299
-268 303 2 2 58 -2 124 -10 245 -27 466 -36 1105 -41 423 -4 758 -1 945 6 283
12 558 33 646 50 24 5 50 9 58 10 7 1 -24 -41 -70 -91z m-1719 -1024 l0 -554
-115 0 -115 0 0 555 0 554 93 3 c50 2 102 1 115 -1 l22 -3 0 -554z m1020 0 l0
-554 -125 0 -125 0 0 555 0 554 103 3 c56 2 112 1 125 -1 l22 -3 0 -554z
m-1020 -589 c0 -8 -4 -15 -10 -15 -5 0 -10 -18 -10 -40 0 -22 -4 -40 -9 -40
-6 0 -11 -17 -13 -37 l-3 -38 -54 -3 c-95 -5 -98 -3 -106 83 -4 41 -11 75 -16
75 -5 0 -9 7 -9 15 0 12 19 15 115 15 96 0 115 -3 115 -15z m1020 0 c0 -8 -4
-15 -10 -15 -5 0 -10 -16 -10 -35 0 -19 -4 -35 -9 -35 -6 0 -11 -19 -13 -42
l-3 -43 -54 -3 c-77 -4 -101 3 -101 32 0 14 -4 26 -10 28 -5 2 -13 31 -16 66
l-7 62 117 0 c96 0 116 -3 116 -15z"/>
<path d="M1875 8046 c-92 -29 -158 -86 -197 -171 -20 -43 -23 -66 -23 -160 0
-100 3 -115 28 -166 60 -122 182 -188 331 -176 86 6 178 37 226 76 l35 28 3
109 c4 144 4 144 -158 144 -129 0 -144 -6 -138 -56 4 -34 25 -42 116 -43 l62
-1 0 -54 0 -54 -47 -19 c-32 -12 -74 -18 -129 -18 -73 0 -84 3 -118 29 -117
89 -110 330 12 413 84 56 189 35 249 -48 29 -41 40 -49 67 -49 19 0 40 8 49
18 50 56 -26 164 -139 198 -57 17 -175 17 -229 0z"/>
<path d="M2430 8040 c-19 -19 -20 -33 -20 -323 l0 -304 23 -21 c22 -21 32 -22
216 -22 113 0 200 4 212 10 13 7 19 21 19 45 0 24 -6 38 -19 45 -11 5 -86 10
-170 10 l-151 0 0 274 c0 273 0 275 -22 290 -31 22 -64 20 -88 -4z"/>
<path d="M2996 8038 c-14 -19 -16 -68 -16 -330 0 -306 0 -307 22 -322 19 -13
59 -16 233 -16 223 0 236 3 250 47 4 15 0 28 -14 42 -20 20 -33 21 -191 21
l-170 0 0 100 0 100 160 0 160 0 12 25 c8 19 8 31 0 50 l-12 25 -160 0 -160 0
0 85 0 85 154 0 c85 0 166 4 179 9 33 13 43 46 23 76 l-16 25 -220 0 c-215 0
-219 0 -234 -22z"/>
<path d="M3621 8041 c-20 -20 -21 -29 -21 -326 0 -297 1 -306 21 -326 20 -20
29 -21 183 -17 144 3 166 6 209 26 100 50 150 150 151 307 2 168 -47 274 -149
325 -46 23 -63 25 -211 28 -154 4 -163 3 -183 -17z m316 -112 c57 -27 83 -78
90 -173 11 -143 -31 -239 -115 -264 -22 -7 -71 -12 -111 -12 l-71 0 0 235 0
235 82 0 c63 0 92 -5 125 -21z"/>
<path d="M4485 8051 c-53 -14 -111 -49 -145 -87 -51 -59 -72 -117 -78 -216 -9
-167 46 -283 163 -343 53 -27 68 -30 154 -30 79 0 105 4 146 23 58 27 119 82
145 132 45 88 51 255 11 344 -54 122 -140 178 -280 183 -47 1 -99 -1 -116 -6z
m197 -130 c38 -24 50 -39 67 -85 42 -114 21 -246 -49 -310 -91 -82 -226 -53
-280 61 -42 87 -28 244 28 307 58 65 156 76 234 27z"/>
<path d="M5050 8040 c-19 -19 -20 -33 -20 -329 0 -309 0 -310 22 -325 32 -22
55 -20 83 9 24 23 25 30 25 138 l0 114 104 7 c111 7 154 17 199 48 86 60 91
237 9 311 -40 37 -91 46 -249 47 -140 0 -155 -2 -173 -20z m290 -93 c28 -10
38 -20 49 -52 12 -36 12 -45 -3 -77 -24 -49 -62 -62 -178 -59 l-48 1 0 100 0
100 73 -1 c39 0 88 -5 107 -12z"/>
<path d="M5596 8038 c-21 -30 -20 -44 4 -68 17 -17 33 -20 110 -20 l90 0 0
-268 c0 -256 1 -269 20 -290 26 -27 64 -28 90 -2 19 19 20 33 20 290 l0 270
93 0 c78 0 97 3 110 18 21 23 21 41 1 70 -15 22 -18 22 -269 22 -251 0 -254 0
-269 -22z"/>
<path d="M6393 8042 c-28 -10 -68 -31 -87 -46 -108 -82 -148 -298 -81 -443 38
-83 59 -107 127 -144 60 -32 68 -34 163 -34 89 0 106 3 157 28 64 32 111 80
142 146 18 39 21 65 21 166 0 101 -3 127 -21 166 -53 114 -145 171 -283 176
-65 3 -99 -1 -138 -15z m245 -134 c82 -75 93 -259 21 -358 -35 -49 -80 -70
-146 -70 -119 0 -190 102 -181 259 5 87 35 154 83 185 63 41 169 33 223 -16z"/>
<path d="M4044 4116 c-99 -19 -139 -33 -212 -73 -179 -98 -317 -282 -351 -467
-58 -315 93 -619 374 -756 116 -57 197 -73 330 -67 190 8 331 71 467 209 115
115 177 255 193 433 14 160 -75 324 -215 395 -103 52 -224 31 -267 -48 -46
-84 -37 -150 32 -223 24 -26 56 -71 72 -100 25 -49 28 -64 28 -154 0 -84 -4
-107 -23 -146 -34 -70 -84 -122 -154 -160 -59 -32 -69 -34 -158 -34 -84 0
-102 3 -152 28 -72 35 -134 97 -167 167 -22 46 -26 69 -26 145 0 78 4 97 27
146 16 31 50 82 78 113 27 31 51 58 51 59 1 1 4 59 8 128 5 115 8 129 34 168
31 47 91 80 145 81 41 0 82 41 82 81 0 15 -10 40 -23 54 -28 33 -77 39 -173
21z"/>
</g>
</svg>
