<?xml version="1.0" standalone="no"?>
<!DOCTYPE svg PUBLIC "-//W3C//DTD SVG 20010904//EN"
 "http://www.w3.org/TR/2001/REC-SVG-20010904/DTD/svg10.dtd">
<svg version="1.0" xmlns="http://www.w3.org/2000/svg"
 width="390.000000pt" height="475.000000pt" viewBox="0 0 390.000000 475.000000"
 preserveAspectRatio="xMidYMid meet">
<metadata>
Created by potrace 1.16, written by Peter Selinger 2001-2019
</metadata>
<g transform="translate(0.000000,475.000000) scale(0.100000,-0.100000)"
fill="#000000" stroke="none">
<path d="M798 4480 c-48 -14 -86 -49 -102 -93 -10 -25 -73 -526 -161 -1257
-79 -668 -167 -1408 -196 -1643 -53 -445 -54 -486 -19 -544 37 -61 77 -72 374
-104 370 -40 336 -31 336 -82 0 -53 17 -86 55 -108 24 -14 221 -38 915 -114
487 -52 937 -101 1000 -108 110 -12 121 -11 250 13 74 15 146 32 158 39 13 7
32 31 43 54 18 40 19 78 19 793 l0 752 28 11 c46 19 67 65 67 147 0 59 -4 77
-25 108 -16 23 -36 39 -54 43 -16 3 -31 14 -33 25 -5 15 -16 18 -79 18 -48 0
-74 4 -74 11 0 29 161 1622 170 1681 20 136 9 227 -33 266 -13 12 -76 40 -140
62 l-118 40 -1177 -1 c-647 0 -1189 -4 -1204 -9z m2402 -45 c42 -22 54 -68 41
-157 -6 -40 -63 -590 -126 -1223 -210 -2087 -226 -2240 -235 -2275 -13 -46
-44 -95 -72 -114 -21 -14 -42 -13 -208 4 -164 18 -819 89 -1810 196 -179 19
-341 39 -360 44 -20 5 -49 24 -65 41 -29 30 -30 33 -29 127 1 53 43 437 93
852 50 415 107 886 126 1045 184 1545 164 1422 235 1457 33 17 111 18 1208 18
1017 0 1177 -2 1202 -15z m155 -48 c52 -19 62 -27 72 -57 15 -43 16 -126 3
-205 -8 -49 -125 -1194 -185 -1815 -72 -739 -155 -1539 -161 -1555 -14 -39
-57 -87 -90 -101 -38 -16 -134 -19 -134 -4 0 5 11 26 25 46 14 20 29 53 34 73
6 20 35 286 66 591 215 2144 286 2844 296 2907 5 39 7 88 3 107 -7 42 -8 42
71 13z m-22 -2029 c-14 -25 -18 -56 -18 -128 0 -121 15 -150 75 -150 l40 0 -2
-759 c-3 -892 10 -804 -128 -834 -46 -9 -84 -16 -86 -14 -2 2 3 27 11 57 12
45 15 168 15 695 0 612 1 651 25 880 14 132 25 250 25 263 0 18 6 22 30 22
l31 0 -18 -32z m72 -25 c-23 -55 -24 -114 -4 -193 3 -9 -3 -15 -15 -15 -27 0
-39 52 -33 133 5 64 18 92 44 92 11 0 13 -5 8 -17z m111 -28 c17 -41 18 -90 3
-134 -29 -83 -89 -43 -89 60 0 74 15 109 47 109 18 0 28 -9 39 -35z m-321
-1723 c-4 -24 -12 -45 -19 -48 -6 -2 -304 27 -661 66 -1194 130 -1166 126
-1183 144 -9 8 -13 18 -10 21 2 3 366 -34 809 -81 701 -76 809 -86 848 -75 62
17 98 45 126 101 21 42 28 86 55 347 16 165 31 308 32 319 2 10 4 -154 6 -366
1 -212 0 -404 -3 -428z m-2003 203 c73 -7 77 -9 87 -35 20 -60 -37 -52 1451
-210 212 -23 395 -43 408 -46 28 -6 28 -22 -1 -33 -23 -9 -1991 199 -2030 214
-24 10 -37 37 -37 78 0 39 7 49 29 43 9 -3 51 -8 93 -11z"/>
<path d="M1046 4195 c-46 -16 -101 -66 -126 -116 -11 -20 -24 -65 -30 -100
-17 -103 -290 -2624 -290 -2679 0 -91 45 -155 130 -185 56 -20 1760 -198 1810
-189 90 16 145 71 174 174 8 30 31 219 50 420 20 201 81 823 136 1383 55 559
100 1044 100 1076 0 103 -41 179 -114 212 -39 18 -83 19 -921 18 -723 0 -887
-2 -919 -14z m1840 -51 c54 -40 68 -70 72 -147 2 -40 -22 -321 -52 -627 -30
-305 -92 -928 -136 -1385 -45 -456 -88 -855 -96 -885 -20 -68 -73 -125 -128
-135 -33 -7 -750 62 -1559 150 -245 26 -296 42 -331 103 -25 45 -24 84 18 467
20 176 53 484 75 685 177 1619 180 1642 202 1687 23 47 70 89 116 103 15 5
425 8 910 7 873 -2 882 -2 909 -23z"/>
<path d="M1299 3824 c-50 -15 -105 -67 -114 -107 -14 -63 -113 -1261 -105
-1286 14 -50 30 -70 69 -91 34 -17 112 -24 623 -60 678 -47 692 -47 735 -20
64 38 62 28 118 585 87 854 85 837 75 876 -14 53 -52 93 -98 107 -63 19 -1241
15 -1303 -4z m1329 -57 c17 -16 33 -42 36 -59 5 -25 -31 -428 -38 -436 -2 -1
-202 6 -445 17 l-441 19 -48 42 c-111 100 -421 414 -416 421 14 24 109 27 696
26 l627 -2 29 -28z m-1151 -265 l231 -227 -23 -275 c-13 -151 -24 -282 -24
-291 -1 -20 -506 -313 -526 -305 -7 2 -16 17 -19 33 -4 15 14 255 39 533 24
278 49 558 54 622 8 112 14 138 29 138 4 -1 111 -103 239 -228z m782 -257
c195 -9 357 -17 359 -20 8 -7 -49 -549 -58 -558 -7 -8 -848 28 -857 37 -4 4
36 535 42 553 3 9 26 11 82 7 43 -2 237 -11 432 -19z m-129 -606 c234 -11 426
-22 428 -24 3 -3 -14 -188 -23 -242 -3 -18 -17 -46 -31 -63 -24 -28 -30 -30
-95 -30 -63 0 -995 61 -1152 76 -37 3 -67 10 -65 15 4 12 479 287 498 288 8 1
206 -8 440 -20z"/>
</g>
</svg>
