<svg id="Laag_1" data-name="Laag 1" xmlns="http://www.w3.org/2000/svg" viewBox="0 0 82.17 82.2"><title>icon</title><path d="M82.45,12.8h0c0-8-21.1-12.4-40.93-12.4S.58,4.75.58,12.81V24.22a1,1,0,0,0,.07.35C.83,26.89,2.83,29,6.59,30.85h.1a37.36,37.36,0,0,0,4.59,1.79l.27.09c.35.12.72.23,1.14.35l1.66.47,1.38.34c1,.26,2.15.49,3.3.72h0l.5.1.66.12,1,.17.6.1c1.07.17,2.18.33,3.31.47l1.7.21c1.54.18,3.15.33,4.77.44l1.86.14h.15c1.29.07,2.59.13,3.91.18s2.77,0,4.18,0H46a15.91,15.91,0,0,0,1.82-.07c.59-.07,1.32,0,2-.09,2-.11,4-.27,5.82-.48q1.5-.15,3-.36c2.13-.27,4.18-.61,6-1,.39-.06.78-.15,1.15-.23l.62-.14,2-.47.58-.16.37-.1c.37-.09.73-.2,1-.29l1-.31c.3-.1.68-.2,1-.32h0a32.43,32.43,0,0,0,4.09-1.65h.2a16.9,16.9,0,0,0,3.62-2.31A21.5,21.5,0,0,1,75,40.16c-3.77,4-9.29,6-16.41,6a1,1,0,0,0-1,1v4.38c-3.79,0-15.9.41-19.23,3.72a3.1,3.1,0,0,0-1,2.23c0,3.93,6.09,4.74,12.53,5.59,5.67.76,12.1,1.61,12.1,4.51a1,1,0,0,1-.42.79c-3.51,3.22-22,2.74-29.44,2.22V68.17a6,6,0,0,0-1.77-4.41c-2.58-2.54-7.06-2.5-7.23-2.5h-7V60.17a1,1,0,0,0-1-1h-4a1,1,0,0,0-1,1v2.55H3.46a2.88,2.88,0,1,0-.34,5.75h7V73.3H3.46A2.88,2.88,0,1,0,3.13,79h7V81.6a1,1,0,0,0,1,1h4a1,1,0,0,0,1-1V80.51h7c.55,0,4.73-.08,7.19-2.5a6,6,0,0,0,1.81-4.41v-1c1.76.11,6,.35,10.93.35,7.78,0,17-.6,19.91-3.27A3,3,0,0,0,64,67.43c0-4.65-7-5.59-13.83-6.49-5.06-.67-10.8-1.43-10.8-3.61a1.12,1.12,0,0,1,.41-.81c2.49-2.48,12.9-3.09,17.81-3.14v5a1,1,0,0,0,1,1c7.7,0,13.72-2.23,17.87-6.64,6.59-7,6.09-16.82,6.06-17.17l0-9.56V24.2ZM10.12,77H3.46a.88.88,0,0,1-.19-1.75h6.85Zm0-10.58H3.46a.88.88,0,0,1-.19-1.75h6.85Zm4-4.21V80.6h-2V61.17h2Zm16,11.34a4,4,0,0,1-1.17,3c-2,2-5.76,1.94-5.83,1.93h-7V63.26h7c1,0,4.16.3,5.82,1.93a4,4,0,0,1,1.17,3ZM41.52,2.4c22.94,0,38.93,5.49,38.93,10.41,0,1.5-1.54,3.12-4.34,4.58-7.35-3.44-20.53-5.58-34.53-5.58S14.34,13.95,7,17.41a12.4,12.4,0,0,1-3.28-2.3l-.27-.29a3.2,3.2,0,0,1-.85-2C2.58,7.89,18.58,2.4,41.52,2.4ZM73.65,18.5l-.81.32-1.26.44-.27.09c-7.5,2.46-18.37,3.87-29.82,3.87h-6L34,23.15l-1-.06L31.61,23l-1-.08a12.3,12.3,0,0,1-1.35-.12l-1-.09L27,22.55l-1-.11-1.3-.17-.93-.12-1.3-.2-.85-.13-1.35-.24-.64-.26L17.9,21l-.32-.06c-.65-.15-1.29-.29-1.91-.45l-.46-.12L13.87,20l-.61-.18-1.09-.33-.59-.21-1-.33L10,18.73l-.52-.21c7.32-2.92,19.31-4.71,32.13-4.71S66.32,15.6,73.65,18.5ZM75,51.43c-3.59,3.81-8.77,5.83-15.42,6L59.63,48c7.22-.18,13-2.42,16.88-6.63a20.94,20.94,0,0,0,4-6.19v.49C80.51,35.78,81,45.07,75,51.43Zm5.59-27.2c0,1.56-1.67,3.24-4.7,4.74h-.1l-1,.46c-.92.41-2,.81-3.07,1.19-.3.11-.6.21-.94.3s-.62.2-1,.29-.64.2-1,.29l-.39.1-.55.15-2,.46-.62.14c-.33.07-.67.15-1.06.21q-2.77.57-6,1c-1,.14-1.94.25-3,.35-1.84.2-3.77.36-5.72.47l-2,.1c-.58,0-1.17,0-1.78.06s-1.17,0-1.78,0H41.63c-1.39,0-2.77,0-4.12,0l-3.83-.17h-.16l-1.8-.13c-1.6-.11-3.18-.26-4.68-.44l-1.7-.15c-1.1-.13-2.18-.29-3.23-.46l-.59-.1-1-.16-1.13-.21c-1.12-.23-2.2-.45-3.22-.7l-1.35-.34c-.55-.14-1.08-.29-1.67-.47-.35-.1-.7-.2-1-.32l-.19-.06A34.83,34.83,0,0,1,7.44,29H7.36C4.29,27.51,2.6,25.81,2.6,24.24a.81.81,0,0,0-.06-.31V16.82a16.22,16.22,0,0,0,3.93,2.61h.1C14,23,27,25.18,41.48,25.18c11.66,0,22.76-1.45,30.45-4l.28-.09c.45-.15.9-.3,1.29-.46s1-.38,1.49-.59,1-.44,1.48-.67h.11a15.65,15.65,0,0,0,3.87-2.59l.13,7.44Z" transform="translate(-0.42 -0.4)"/><path d="M7.29,21.18a3,3,0,1,0,3,3,3,3,0,0,0-3-3Zm0,4.08a1,1,0,1,1,1-1h0A1,1,0,0,1,7.29,25.26Z" transform="translate(-0.42 -0.4)"/><path d="M18.7,24.85a3,3,0,1,0,3,3A3,3,0,0,0,18.7,24.85Zm0,4.08a1,1,0,1,1,1-1A1,1,0,0,1,18.7,28.93Z" transform="translate(-0.42 -0.4)"/><path d="M30.11,26.44a3,3,0,1,0,3,3A3,3,0,0,0,30.11,26.44Zm0,4.08a1,1,0,1,1,1-1A1,1,0,0,1,30.11,30.52Z" transform="translate(-0.42 -0.4)"/><path d="M41.52,26.89a3,3,0,1,0,3,3A3,3,0,0,0,41.52,26.89Zm0,4.08a1,1,0,1,1,1-1A1,1,0,0,1,41.52,31Z" transform="translate(-0.42 -0.4)"/><path d="M64.34,49.37a3,3,0,1,0,3,3A3,3,0,0,0,64.34,49.37Zm0,4.08a1,1,0,1,1,1-1A1,1,0,0,1,64.34,53.45Z" transform="translate(-0.42 -0.4)"/><path d="M73.71,44.81a3,3,0,1,0,3,3,3,3,0,0,0-3-3Zm0,4.08a1,1,0,1,1,1-1A1,1,0,0,1,73.71,48.89Z" transform="translate(-0.42 -0.4)"/><path d="M75.75,21.18a3,3,0,1,0,3,3,3,3,0,0,0-3-3Zm0,4.08a1,1,0,1,1,1-1A1,1,0,0,1,75.75,25.26Z" transform="translate(-0.42 -0.4)"/><path d="M64.34,24.85a3,3,0,1,0,3,3A3,3,0,0,0,64.34,24.85Zm0,4.08a1,1,0,1,1,1-1A1,1,0,0,1,64.34,28.93Z" transform="translate(-0.42 -0.4)"/><path d="M52.93,26.44a3,3,0,1,0,3,3A3,3,0,0,0,52.93,26.44Zm0,4.08a1,1,0,1,1,1-1A1,1,0,0,1,52.93,30.52Z" transform="translate(-0.42 -0.4)"/><path d="M75.75,15.85a3,3,0,1,0-3-3A3,3,0,0,0,75.75,15.85Zm0-4.08a1,1,0,1,1-1,1A1,1,0,0,1,75.75,11.77Z" transform="translate(-0.42 -0.4)"/><path d="M64.34,12.18a3,3,0,1,0-3-3A3,3,0,0,0,64.34,12.18Zm0-4.07a1,1,0,1,1-1,1A1,1,0,0,1,64.34,8.11Z" transform="translate(-0.42 -0.4)"/><path d="M52.93,10.6a3,3,0,1,0-3-3A3,3,0,0,0,52.93,10.6Zm0-4.07a1,1,0,1,1-1,1,1,1,0,0,1,1-1h0Z" transform="translate(-0.42 -0.4)"/><path d="M41.52,10.14a3,3,0,1,0-3-3A3,3,0,0,0,41.52,10.14Zm0-4.07a1,1,0,1,1-1,1,1,1,0,0,1,1-1Z" transform="translate(-0.42 -0.4)"/><path d="M7.29,15.85a3,3,0,1,0-3-3A3,3,0,0,0,7.29,15.85Zm0-4.08a1,1,0,1,1-1,1A1,1,0,0,1,7.29,11.77Z" transform="translate(-0.42 -0.4)"/><path d="M18.7,12.18a3,3,0,1,0-3-3A3,3,0,0,0,18.7,12.18Zm0-4.07a1,1,0,1,1-1,1A1,1,0,0,1,18.7,8.11Z" transform="translate(-0.42 -0.4)"/><path d="M30.11,10.6a3,3,0,1,0-3-3A3,3,0,0,0,30.11,10.6Zm0-4.07a1,1,0,1,1-1,1,1,1,0,0,1,1-1h0Z" transform="translate(-0.42 -0.4)"/></svg>