<svg id="Laag_1" data-name="Laag 1" xmlns="http://www.w3.org/2000/svg" viewBox="0 0 83 83"><defs><style>.cls-1{fill:#45464b;}</style></defs><title>icon2</title><path class="cls-1" d="M23.67.11c11.05-.87,22.8,3.62,26.79,10.84,1.63,2,1,4.45,2.83,6.38,1,.87-.67,1.73-.28,2.68,0,6.61-.09,13.31-.45,19.86-3.78.86-8.17.28-12.16.51-1.21.59-1.12,2,.24,2.41,4.76,1.93,10.93,1.71,15.26,4.21,1.66,1.09,0,3-1.72,3.53-4.89,1.61-11,.77-15.39,3.26-2.09,2.16-.53,4.9,1.27,6.89,1.24,1.86,5.25,3.31,7.57,1.47,4.33-3.43,8.23-7.27,13.86-9.79,1.94-.89,5-1.89,6.93-.48,1.47,1.45,0,3.34-1,4.74-2.41,4-8,6.78-9.55,11,.15,2.76,5.52,2.57,8.51,2.51,2.57.41,3.32-1.27,5.68-1.46,2-.27.7-2.57,3.11-2.13,1.09-.16,3.48-1.35,3.24.21a19.64,19.64,0,0,0,3-.88c-.38.64-1.63.69-2.4,1.07.26.59.65,1.14,1,1.72,1-.11,2-.47,3-.67a11.2,11.2,0,0,1-2.73.91c.57,1.54-2.78,1.31-3.79,2.25a6.79,6.79,0,0,0-5.72.16c-3.49-.77-7.26.41-10.72-.57-2.71-.41-4.28-2.42-3.24-4.22,2.09-3.66,6.61-6.35,9.05-9.9,1-1.3,3.74-4.76-.44-4.38-5.32,1.28-9,4.46-12.7,7.22-2.4,1.84-4.31,5-8.65,4.53-3.76-.47-5.73-3.07-7-5.29-1-2-1.23-4.94,1.92-6.17,4.46-2.12,10.31-1.26,15-3,.78-.37,1.53-1.15.95-1.77-4.24-2.35-10.24-2.1-14.8-4-1.64-.61-2.58-2-1.62-3.19-1.41,0-2.83,0-4.22.05,0,1.35-2.54.58-3.74,1C29.21,55.19,29.35,69.27,27.6,83c-1.84-13.74-2-27.73-3.33-41.56-1.32-.22-3.24.19-4.07-.77-5.93-.61-12.66.4-18.41-.47C1,34.11,1.28,27.9.83,21.77c.85-1.92-2.39-3.77.2-5.35,1.27-2.88,1.82-6.07,4.45-8.61C9.56,3.65,16.35.65,23.67.11m.77,4.24C13.58,5,5.25,12.92,8,20.2c2,7.57,14.71,12.54,25.32,10C42.66,28.38,48.5,21.11,46,14.7,44.11,8.14,34.12,3.32,24.44,4.35M1.62,21c.21,6.31.17,12.78.94,19,6.44.53,13.16-.07,19.7.32,5.36-.93,10.85.25,16.41-.23,1.6-1.41,3.64-2.67,4.48-4.41.36-1.4-1.65-2.7-3.25-3.21-11.26,4.76-27.16,2-34.18-5.59-1.86-1.77-2.64-4.2-4.1-5.86M51,23.23a20.64,20.64,0,0,1-9.68,8.6c1.31.79,2.77,1.62,3.16,2.85.7,2.19-2.17,3.66-3.71,5.28,3.48-.05,7.32.55,10.62-.36-.1-5.18.23-10.35.29-15.54q.53-1.14-.69-.83M26.83,40.88c.52.47,1.85-.1,2.47.16-.52-.47-1.87.09-2.47-.16M78.68,67.79C78.71,68.7,80,67.74,78.68,67.79Z"/></svg>